<svg xmlns:xlink="http://www.w3.org/1999/xlink" xmlns="http://www.w3.org/2000/svg" height="36" version="1.1" viewBox="0 0 36 36" width="36"><defs><path class="ytp-svg-fill" d="M 18,11 V 7 l -5,5 5,5 v -4 c 3.3,0 6,2.7 6,6 0,3.3 -2.7,6 -6,6 -3.3,0 -6,-2.7 -6,-6 h -2 c 0,4.4 3.6,8 8,8 4.4,0 8,-3.6 8,-8 0,-4.4 -3.6,-8 -8,-8 z" id="ytp-id-96" fill="#FFFFFF"></path></defs><use class="ytp-svg-shadow" xlink:href="#ytp-id-96" stroke="#000000" fill="none" stroke-width="2px" stroke-opacity="0.15"></use><path class="ytp-svg-fill" d="M 18,11 V 7 l -5,5 5,5 v -4 c 3.3,0 6,2.7 6,6 0,3.3 -2.7,6 -6,6 -3.3,0 -6,-2.7 -6,-6 h -2 c 0,4.4 3.6,8 8,8 4.4,0 8,-3.6 8,-8 0,-4.4 -3.6,-8 -8,-8 z" id="ytp-id-96" fill="#FFFFFF"></path></svg>